<svg xmlns="http://www.w3.org/2000/svg" width="420" height="760" viewBox="0 0 420 760">
  <defs>
    <filter id="shadow" x="-50%" y="-50%" width="200%" height="200%">
      <feDropShadow dx="0" dy="2" stdDeviation="2" flood-color="#000000" flood-opacity="0.45"/>
    </filter>
  </defs>
  <rect width="100%" height="100%" fill="#1A1410"/>

  <rect x="22" y="72" width="334" height="334" rx="12" fill="#2A2018" stroke="#3A2A20" stroke-width="2"/>
  <rect x="30" y="80" width="30" height="30" rx="10" ry="10" fill="#B99B6B" stroke="#EADCCB" stroke-width="1"/>
  <rect x="62" y="80" width="30" height="30" rx="10" ry="10" fill="#C97C5D" stroke="#EADCCB" stroke-width="1"/>
  <rect x="94" y="80" width="30" height="30" rx="10" ry="10" fill="#C97C5D" stroke="#EADCCB" stroke-width="1"/>
  <rect x="126" y="80" width="30" height="30" rx="10" ry="10" fill="#B99B6B" stroke="#EADCCB" stroke-width="1"/>
  <rect x="158" y="80" width="30" height="30" rx="10" ry="10" fill="#D6C7AE" stroke="#EADCCB" stroke-width="1"/>
  <rect x="190" y="80" width="30" height="30" rx="10" ry="10" fill="#C97C5D" stroke="#EADCCB" stroke-width="1"/>
  <rect x="222" y="80" width="30" height="30" rx="10" ry="10" fill="#6B8E23" stroke="#EADCCB" stroke-width="1"/>
  <rect x="254" y="80" width="30" height="30" rx="10" ry="10" fill="#8E7DBE" stroke="#EADCCB" stroke-width="1"/>
  <rect x="286" y="80" width="30" height="30" rx="10" ry="10" fill="#C97C5D" stroke="#EADCCB" stroke-width="1"/>
  <rect x="318" y="80" width="30" height="30" rx="10" ry="10" fill="#E9B384" stroke="#EADCCB" stroke-width="1"/>
  <rect x="30" y="112" width="30" height="30" rx="10" ry="10" fill="#C97C5D" stroke="#EADCCB" stroke-width="1"/>
  <rect x="62" y="112" width="30" height="30" rx="10" ry="10" fill="#E9B384" stroke="#EADCCB" stroke-width="1"/>
  <rect x="94" y="112" width="30" height="30" rx="10" ry="10" fill="#6B8E23" stroke="#EADCCB" stroke-width="1"/>
  <rect x="126" y="112" width="30" height="30" rx="10" ry="10" fill="#D6C7AE" stroke="#EADCCB" stroke-width="1"/>
  <rect x="158" y="112" width="30" height="30" rx="10" ry="10" fill="#C97C5D" stroke="#EADCCB" stroke-width="1"/>
  <rect x="190" y="112" width="30" height="30" rx="10" ry="10" fill="#B99B6B" stroke="#EADCCB" stroke-width="1"/>
  <rect x="222" y="112" width="30" height="30" rx="10" ry="10" fill="#B99B6B" stroke="#EADCCB" stroke-width="1"/>
  <rect x="254" y="112" width="30" height="30" rx="10" ry="10" fill="#8E7DBE" stroke="#EADCCB" stroke-width="1"/>
  <rect x="286" y="112" width="30" height="30" rx="10" ry="10" fill="#6B8E23" stroke="#EADCCB" stroke-width="1"/>
  <rect x="318" y="112" width="30" height="30" rx="10" ry="10" fill="#C97C5D" stroke="#EADCCB" stroke-width="1"/>
  <rect x="30" y="144" width="30" height="30" rx="10" ry="10" fill="#C97C5D" stroke="#EADCCB" stroke-width="1"/>
  <rect x="62" y="144" width="30" height="30" rx="10" ry="10" fill="#6B8E23" stroke="#EADCCB" stroke-width="1"/>
  <rect x="94" y="144" width="30" height="30" rx="10" ry="10" fill="#6B8E23" stroke="#EADCCB" stroke-width="1"/>
  <rect x="126" y="144" width="30" height="30" rx="10" ry="10" fill="#8E7DBE" stroke="#EADCCB" stroke-width="1"/>
  <rect x="158" y="144" width="30" height="30" rx="10" ry="10" fill="#B99B6B" stroke="#EADCCB" stroke-width="1"/>
  <rect x="190" y="144" width="30" height="30" rx="10" ry="10" fill="#B99B6B" stroke="#EADCCB" stroke-width="1"/>
  <rect x="222" y="144" width="30" height="30" rx="10" ry="10" fill="#8E7DBE" stroke="#EADCCB" stroke-width="1"/>
  <rect x="254" y="144" width="30" height="30" rx="10" ry="10" fill="#B99B6B" stroke="#EADCCB" stroke-width="1"/>
  <rect x="286" y="144" width="30" height="30" rx="10" ry="10" fill="#C97C5D" stroke="#EADCCB" stroke-width="1"/>
  <rect x="318" y="144" width="30" height="30" rx="10" ry="10" fill="#6B8E23" stroke="#EADCCB" stroke-width="1"/>
  <rect x="30" y="176" width="30" height="30" rx="10" ry="10" fill="#8E7DBE" stroke="#EADCCB" stroke-width="1"/>
  <rect x="62" y="176" width="30" height="30" rx="10" ry="10" fill="#E9B384" stroke="#EADCCB" stroke-width="1"/>
  <rect x="94" y="176" width="30" height="30" rx="10" ry="10" fill="#8E7DBE" stroke="#EADCCB" stroke-width="1"/>
  <rect x="126" y="176" width="30" height="30" rx="10" ry="10" fill="#E9B384" stroke="#EADCCB" stroke-width="1"/>
  <rect x="158" y="176" width="30" height="30" rx="10" ry="10" fill="#B99B6B" stroke="#EADCCB" stroke-width="1"/>
  <rect x="190" y="176" width="30" height="30" rx="10" ry="10" fill="#C97C5D" stroke="#EADCCB" stroke-width="1"/>
  <rect x="222" y="176" width="30" height="30" rx="10" ry="10" fill="#E9B384" stroke="#EADCCB" stroke-width="1"/>
  <rect x="254" y="176" width="30" height="30" rx="10" ry="10" fill="#D6C7AE" stroke="#EADCCB" stroke-width="1"/>
  <rect x="286" y="176" width="30" height="30" rx="10" ry="10" fill="#E9B384" stroke="#EADCCB" stroke-width="1"/>
  <rect x="318" y="176" width="30" height="30" rx="10" ry="10" fill="#D6C7AE" stroke="#EADCCB" stroke-width="1"/>
  <rect x="30" y="208" width="30" height="30" rx="10" ry="10" fill="#6B8E23" stroke="#EADCCB" stroke-width="1"/>
  <rect x="62" y="208" width="30" height="30" rx="10" ry="10" fill="#C97C5D" stroke="#EADCCB" stroke-width="1"/>
  <rect x="94" y="208" width="30" height="30" rx="10" ry="10" fill="#8E7DBE" stroke="#EADCCB" stroke-width="1"/>
  <rect x="126" y="208" width="30" height="30" rx="10" ry="10" fill="#6B8E23" stroke="#EADCCB" stroke-width="1"/>
  <rect x="158" y="208" width="30" height="30" rx="10" ry="10" fill="#8E7DBE" stroke="#EADCCB" stroke-width="1"/>
  <rect x="190" y="208" width="30" height="30" rx="10" ry="10" fill="#6B8E23" stroke="#EADCCB" stroke-width="1"/>
  <rect x="222" y="208" width="30" height="30" rx="10" ry="10" fill="#6B8E23" stroke="#EADCCB" stroke-width="1"/>
  <rect x="254" y="208" width="30" height="30" rx="10" ry="10" fill="#8E7DBE" stroke="#EADCCB" stroke-width="1"/>
  <rect x="286" y="208" width="30" height="30" rx="10" ry="10" fill="#C97C5D" stroke="#EADCCB" stroke-width="1"/>
  <rect x="318" y="208" width="30" height="30" rx="10" ry="10" fill="#6B8E23" stroke="#EADCCB" stroke-width="1"/>
  <rect x="30" y="240" width="30" height="30" rx="10" ry="10" fill="#B99B6B" stroke="#EADCCB" stroke-width="1"/>
  <rect x="62" y="240" width="30" height="30" rx="10" ry="10" fill="#D6C7AE" stroke="#EADCCB" stroke-width="1"/>
  <rect x="94" y="240" width="30" height="30" rx="10" ry="10" fill="#E9B384" stroke="#EADCCB" stroke-width="1"/>
  <rect x="126" y="240" width="30" height="30" rx="10" ry="10" fill="#E9B384" stroke="#EADCCB" stroke-width="1"/>
  <rect x="158" y="240" width="30" height="30" rx="10" ry="10" fill="#B99B6B" stroke="#EADCCB" stroke-width="1"/>
  <rect x="190" y="240" width="30" height="30" rx="10" ry="10" fill="#6B8E23" stroke="#EADCCB" stroke-width="1"/>
  <rect x="222" y="240" width="30" height="30" rx="10" ry="10" fill="#B99B6B" stroke="#EADCCB" stroke-width="1"/>
  <rect x="254" y="240" width="30" height="30" rx="10" ry="10" fill="#D6C7AE" stroke="#EADCCB" stroke-width="1"/>
  <rect x="286" y="240" width="30" height="30" rx="10" ry="10" fill="#8E7DBE" stroke="#EADCCB" stroke-width="1"/>
  <rect x="318" y="240" width="30" height="30" rx="10" ry="10" fill="#6B8E23" stroke="#EADCCB" stroke-width="1"/>
  <rect x="30" y="272" width="30" height="30" rx="10" ry="10" fill="#8E7DBE" stroke="#EADCCB" stroke-width="1"/>
  <rect x="62" y="272" width="30" height="30" rx="10" ry="10" fill="#D6C7AE" stroke="#EADCCB" stroke-width="1"/>
  <rect x="94" y="272" width="30" height="30" rx="10" ry="10" fill="#6B8E23" stroke="#EADCCB" stroke-width="1"/>
  <rect x="126" y="272" width="30" height="30" rx="10" ry="10" fill="#C97C5D" stroke="#EADCCB" stroke-width="1"/>
  <rect x="158" y="272" width="30" height="30" rx="10" ry="10" fill="#6B8E23" stroke="#EADCCB" stroke-width="1"/>
  <rect x="190" y="272" width="30" height="30" rx="10" ry="10" fill="#C97C5D" stroke="#EADCCB" stroke-width="1"/>
  <rect x="222" y="272" width="30" height="30" rx="10" ry="10" fill="#D6C7AE" stroke="#EADCCB" stroke-width="1"/>
  <rect x="254" y="272" width="30" height="30" rx="10" ry="10" fill="#C97C5D" stroke="#EADCCB" stroke-width="1"/>
  <rect x="286" y="272" width="30" height="30" rx="10" ry="10" fill="#C97C5D" stroke="#EADCCB" stroke-width="1"/>
  <rect x="318" y="272" width="30" height="30" rx="10" ry="10" fill="#6B8E23" stroke="#EADCCB" stroke-width="1"/>
  <rect x="30" y="304" width="30" height="30" rx="10" ry="10" fill="#C97C5D" stroke="#EADCCB" stroke-width="1"/>
  <rect x="62" y="304" width="30" height="30" rx="10" ry="10" fill="#B99B6B" stroke="#EADCCB" stroke-width="1"/>
  <rect x="94" y="304" width="30" height="30" rx="10" ry="10" fill="#D6C7AE" stroke="#EADCCB" stroke-width="1"/>
  <rect x="126" y="304" width="30" height="30" rx="10" ry="10" fill="#8E7DBE" stroke="#EADCCB" stroke-width="1"/>
  <rect x="158" y="304" width="30" height="30" rx="10" ry="10" fill="#E9B384" stroke="#EADCCB" stroke-width="1"/>
  <rect x="190" y="304" width="30" height="30" rx="10" ry="10" fill="#D6C7AE" stroke="#EADCCB" stroke-width="1"/>
  <rect x="222" y="304" width="30" height="30" rx="10" ry="10" fill="#C97C5D" stroke="#EADCCB" stroke-width="1"/>
  <rect x="254" y="304" width="30" height="30" rx="10" ry="10" fill="#8E7DBE" stroke="#EADCCB" stroke-width="1"/>
  <rect x="286" y="304" width="30" height="30" rx="10" ry="10" fill="#8E7DBE" stroke="#EADCCB" stroke-width="1"/>
  <rect x="318" y="304" width="30" height="30" rx="10" ry="10" fill="#B99B6B" stroke="#EADCCB" stroke-width="1"/>
  <rect x="30" y="336" width="30" height="30" rx="10" ry="10" fill="#8E7DBE" stroke="#EADCCB" stroke-width="1"/>
  <rect x="62" y="336" width="30" height="30" rx="10" ry="10" fill="#D6C7AE" stroke="#EADCCB" stroke-width="1"/>
  <rect x="94" y="336" width="30" height="30" rx="10" ry="10" fill="#C97C5D" stroke="#EADCCB" stroke-width="1"/>
  <rect x="126" y="336" width="30" height="30" rx="10" ry="10" fill="#C97C5D" stroke="#EADCCB" stroke-width="1"/>
  <rect x="158" y="336" width="30" height="30" rx="10" ry="10" fill="#C97C5D" stroke="#EADCCB" stroke-width="1"/>
  <rect x="190" y="336" width="30" height="30" rx="10" ry="10" fill="#E9B384" stroke="#EADCCB" stroke-width="1"/>
  <rect x="222" y="336" width="30" height="30" rx="10" ry="10" fill="#8E7DBE" stroke="#EADCCB" stroke-width="1"/>
  <rect x="254" y="336" width="30" height="30" rx="10" ry="10" fill="#8E7DBE" stroke="#EADCCB" stroke-width="1"/>
  <rect x="286" y="336" width="30" height="30" rx="10" ry="10" fill="#B99B6B" stroke="#EADCCB" stroke-width="1"/>
  <rect x="318" y="336" width="30" height="30" rx="10" ry="10" fill="#8E7DBE" stroke="#EADCCB" stroke-width="1"/>
  <rect x="30" y="368" width="30" height="30" rx="10" ry="10" fill="#C97C5D" stroke="#EADCCB" stroke-width="1"/>
  <rect x="62" y="368" width="30" height="30" rx="10" ry="10" fill="#D6C7AE" stroke="#EADCCB" stroke-width="1"/>
  <rect x="94" y="368" width="30" height="30" rx="10" ry="10" fill="#D6C7AE" stroke="#EADCCB" stroke-width="1"/>
  <rect x="126" y="368" width="30" height="30" rx="10" ry="10" fill="#E9B384" stroke="#EADCCB" stroke-width="1"/>
  <rect x="158" y="368" width="30" height="30" rx="10" ry="10" fill="#E9B384" stroke="#EADCCB" stroke-width="1"/>
  <rect x="190" y="368" width="30" height="30" rx="10" ry="10" fill="#6B8E23" stroke="#EADCCB" stroke-width="1"/>
  <rect x="222" y="368" width="30" height="30" rx="10" ry="10" fill="#8E7DBE" stroke="#EADCCB" stroke-width="1"/>
  <rect x="254" y="368" width="30" height="30" rx="10" ry="10" fill="#6B8E23" stroke="#EADCCB" stroke-width="1"/>
  <rect x="286" y="368" width="30" height="30" rx="10" ry="10" fill="#E9B384" stroke="#EADCCB" stroke-width="1"/>
  <rect x="318" y="368" width="30" height="30" rx="10" ry="10" fill="#D6C7AE" stroke="#EADCCB" stroke-width="1"/>
  <rect x="30" y="440" width="100" height="100" rx="12" fill="#2A2018" stroke="#3A2A20" stroke-width="2"/>
  <rect x="48" y="458" width="30" height="30" rx="10" ry="10" fill="#B99B6B" stroke="#EADCCB" stroke-width="1"/>
  <rect x="80" y="458" width="30" height="30" rx="10" ry="10" fill="#B99B6B" stroke="#EADCCB" stroke-width="1"/>
  <rect x="48" y="490" width="30" height="30" rx="10" ry="10" fill="#B99B6B" stroke="#EADCCB" stroke-width="1"/>
  <rect x="150" y="440" width="100" height="100" rx="12" fill="#2A2018" stroke="#3A2A20" stroke-width="2"/>
  <rect x="168" y="458" width="30" height="30" rx="10" ry="10" fill="#8E7DBE" stroke="#EADCCB" stroke-width="1"/>
  <rect x="200" y="458" width="30" height="30" rx="10" ry="10" fill="#8E7DBE" stroke="#EADCCB" stroke-width="1"/>
  <rect x="232" y="458" width="30" height="30" rx="10" ry="10" fill="#8E7DBE" stroke="#EADCCB" stroke-width="1"/>
  <rect x="200" y="490" width="30" height="30" rx="10" ry="10" fill="#8E7DBE" stroke="#EADCCB" stroke-width="1"/>
  <rect x="270" y="440" width="100" height="100" rx="12" fill="#2A2018" stroke="#3A2A20" stroke-width="2"/>
  <rect x="288" y="458" width="30" height="30" rx="10" ry="10" fill="#C97C5D" stroke="#EADCCB" stroke-width="1"/>
  <rect x="320" y="458" width="30" height="30" rx="10" ry="10" fill="#C97C5D" stroke="#EADCCB" stroke-width="1"/>
  <rect x="352" y="458" width="30" height="30" rx="10" ry="10" fill="#C97C5D" stroke="#EADCCB" stroke-width="1"/>
</svg>
