<svg xmlns="http://www.w3.org/2000/svg" width="420" height="760" viewBox="0 0 420 760">
  <defs>
    <filter id="shadow" x="-50%" y="-50%" width="200%" height="200%">
      <feDropShadow dx="0" dy="2" stdDeviation="2" flood-color="#000000" flood-opacity="0.45"/>
    </filter>
  </defs>
  <rect width="100%" height="100%" fill="#10131A"/>

  <rect x="22" y="72" width="334" height="334" rx="12" fill="#1C2230" stroke="#2A344A" stroke-width="2"/>
  <rect x="30" y="80" width="30" height="30" rx="2" ry="2" fill="#7CFC00" stroke="#0B0F18" stroke-width="1"/>
  <rect x="32" y="82" width="6" height="6" fill="rgba(255,255,255,0.25)"/>
  <rect x="62" y="80" width="30" height="30" rx="2" ry="2" fill="#FF6F61" stroke="#0B0F18" stroke-width="1"/>
  <rect x="64" y="82" width="6" height="6" fill="rgba(255,255,255,0.25)"/>
  <rect x="94" y="80" width="30" height="30" rx="2" ry="2" fill="#58D3F7" stroke="#0B0F18" stroke-width="1"/>
  <rect x="96" y="82" width="6" height="6" fill="rgba(255,255,255,0.25)"/>
  <rect x="126" y="80" width="30" height="30" rx="2" ry="2" fill="#4D908E" stroke="#0B0F18" stroke-width="1"/>
  <rect x="128" y="82" width="6" height="6" fill="rgba(255,255,255,0.25)"/>
  <rect x="158" y="80" width="30" height="30" rx="2" ry="2" fill="#FFD166" stroke="#0B0F18" stroke-width="1"/>
  <rect x="160" y="82" width="6" height="6" fill="rgba(255,255,255,0.25)"/>
  <rect x="190" y="80" width="30" height="30" rx="2" ry="2" fill="#FFD166" stroke="#0B0F18" stroke-width="1"/>
  <rect x="192" y="82" width="6" height="6" fill="rgba(255,255,255,0.25)"/>
  <rect x="222" y="80" width="30" height="30" rx="2" ry="2" fill="#7CFC00" stroke="#0B0F18" stroke-width="1"/>
  <rect x="224" y="82" width="6" height="6" fill="rgba(255,255,255,0.25)"/>
  <rect x="254" y="80" width="30" height="30" rx="2" ry="2" fill="#58D3F7" stroke="#0B0F18" stroke-width="1"/>
  <rect x="256" y="82" width="6" height="6" fill="rgba(255,255,255,0.25)"/>
  <rect x="286" y="80" width="30" height="30" rx="2" ry="2" fill="#58D3F7" stroke="#0B0F18" stroke-width="1"/>
  <rect x="288" y="82" width="6" height="6" fill="rgba(255,255,255,0.25)"/>
  <rect x="318" y="80" width="30" height="30" rx="2" ry="2" fill="#58D3F7" stroke="#0B0F18" stroke-width="1"/>
  <rect x="320" y="82" width="6" height="6" fill="rgba(255,255,255,0.25)"/>
  <rect x="30" y="112" width="30" height="30" rx="2" ry="2" fill="#FFD166" stroke="#0B0F18" stroke-width="1"/>
  <rect x="32" y="114" width="6" height="6" fill="rgba(255,255,255,0.25)"/>
  <rect x="62" y="112" width="30" height="30" rx="2" ry="2" fill="#AB63FA" stroke="#0B0F18" stroke-width="1"/>
  <rect x="64" y="114" width="6" height="6" fill="rgba(255,255,255,0.25)"/>
  <rect x="94" y="112" width="30" height="30" rx="2" ry="2" fill="#FF6F61" stroke="#0B0F18" stroke-width="1"/>
  <rect x="96" y="114" width="6" height="6" fill="rgba(255,255,255,0.25)"/>
  <rect x="126" y="112" width="30" height="30" rx="2" ry="2" fill="#58D3F7" stroke="#0B0F18" stroke-width="1"/>
  <rect x="128" y="114" width="6" height="6" fill="rgba(255,255,255,0.25)"/>
  <rect x="158" y="112" width="30" height="30" rx="2" ry="2" fill="#7CFC00" stroke="#0B0F18" stroke-width="1"/>
  <rect x="160" y="114" width="6" height="6" fill="rgba(255,255,255,0.25)"/>
  <rect x="190" y="112" width="30" height="30" rx="2" ry="2" fill="#AB63FA" stroke="#0B0F18" stroke-width="1"/>
  <rect x="192" y="114" width="6" height="6" fill="rgba(255,255,255,0.25)"/>
  <rect x="222" y="112" width="30" height="30" rx="2" ry="2" fill="#AB63FA" stroke="#0B0F18" stroke-width="1"/>
  <rect x="224" y="114" width="6" height="6" fill="rgba(255,255,255,0.25)"/>
  <rect x="254" y="112" width="30" height="30" rx="2" ry="2" fill="#FF6F61" stroke="#0B0F18" stroke-width="1"/>
  <rect x="256" y="114" width="6" height="6" fill="rgba(255,255,255,0.25)"/>
  <rect x="286" y="112" width="30" height="30" rx="2" ry="2" fill="#FF6F61" stroke="#0B0F18" stroke-width="1"/>
  <rect x="288" y="114" width="6" height="6" fill="rgba(255,255,255,0.25)"/>
  <rect x="318" y="112" width="30" height="30" rx="2" ry="2" fill="#7CFC00" stroke="#0B0F18" stroke-width="1"/>
  <rect x="320" y="114" width="6" height="6" fill="rgba(255,255,255,0.25)"/>
  <rect x="30" y="144" width="30" height="30" rx="2" ry="2" fill="#58D3F7" stroke="#0B0F18" stroke-width="1"/>
  <rect x="32" y="146" width="6" height="6" fill="rgba(255,255,255,0.25)"/>
  <rect x="62" y="144" width="30" height="30" rx="2" ry="2" fill="#FF6F61" stroke="#0B0F18" stroke-width="1"/>
  <rect x="64" y="146" width="6" height="6" fill="rgba(255,255,255,0.25)"/>
  <rect x="94" y="144" width="30" height="30" rx="2" ry="2" fill="#7CFC00" stroke="#0B0F18" stroke-width="1"/>
  <rect x="96" y="146" width="6" height="6" fill="rgba(255,255,255,0.25)"/>
  <rect x="126" y="144" width="30" height="30" rx="2" ry="2" fill="#58D3F7" stroke="#0B0F18" stroke-width="1"/>
  <rect x="128" y="146" width="6" height="6" fill="rgba(255,255,255,0.25)"/>
  <rect x="158" y="144" width="30" height="30" rx="2" ry="2" fill="#4D908E" stroke="#0B0F18" stroke-width="1"/>
  <rect x="160" y="146" width="6" height="6" fill="rgba(255,255,255,0.25)"/>
  <rect x="190" y="144" width="30" height="30" rx="2" ry="2" fill="#FF6F61" stroke="#0B0F18" stroke-width="1"/>
  <rect x="192" y="146" width="6" height="6" fill="rgba(255,255,255,0.25)"/>
  <rect x="222" y="144" width="30" height="30" rx="2" ry="2" fill="#FF6F61" stroke="#0B0F18" stroke-width="1"/>
  <rect x="224" y="146" width="6" height="6" fill="rgba(255,255,255,0.25)"/>
  <rect x="254" y="144" width="30" height="30" rx="2" ry="2" fill="#7CFC00" stroke="#0B0F18" stroke-width="1"/>
  <rect x="256" y="146" width="6" height="6" fill="rgba(255,255,255,0.25)"/>
  <rect x="286" y="144" width="30" height="30" rx="2" ry="2" fill="#7CFC00" stroke="#0B0F18" stroke-width="1"/>
  <rect x="288" y="146" width="6" height="6" fill="rgba(255,255,255,0.25)"/>
  <rect x="318" y="144" width="30" height="30" rx="2" ry="2" fill="#FF6F61" stroke="#0B0F18" stroke-width="1"/>
  <rect x="320" y="146" width="6" height="6" fill="rgba(255,255,255,0.25)"/>
  <rect x="30" y="176" width="30" height="30" rx="2" ry="2" fill="#FF6F61" stroke="#0B0F18" stroke-width="1"/>
  <rect x="32" y="178" width="6" height="6" fill="rgba(255,255,255,0.25)"/>
  <rect x="62" y="176" width="30" height="30" rx="2" ry="2" fill="#4D908E" stroke="#0B0F18" stroke-width="1"/>
  <rect x="64" y="178" width="6" height="6" fill="rgba(255,255,255,0.25)"/>
  <rect x="94" y="176" width="30" height="30" rx="2" ry="2" fill="#4D908E" stroke="#0B0F18" stroke-width="1"/>
  <rect x="96" y="178" width="6" height="6" fill="rgba(255,255,255,0.25)"/>
  <rect x="126" y="176" width="30" height="30" rx="2" ry="2" fill="#FF6F61" stroke="#0B0F18" stroke-width="1"/>
  <rect x="128" y="178" width="6" height="6" fill="rgba(255,255,255,0.25)"/>
  <rect x="158" y="176" width="30" height="30" rx="2" ry="2" fill="#58D3F7" stroke="#0B0F18" stroke-width="1"/>
  <rect x="160" y="178" width="6" height="6" fill="rgba(255,255,255,0.25)"/>
  <rect x="190" y="176" width="30" height="30" rx="2" ry="2" fill="#AB63FA" stroke="#0B0F18" stroke-width="1"/>
  <rect x="192" y="178" width="6" height="6" fill="rgba(255,255,255,0.25)"/>
  <rect x="222" y="176" width="30" height="30" rx="2" ry="2" fill="#FF6F61" stroke="#0B0F18" stroke-width="1"/>
  <rect x="224" y="178" width="6" height="6" fill="rgba(255,255,255,0.25)"/>
  <rect x="254" y="176" width="30" height="30" rx="2" ry="2" fill="#4D908E" stroke="#0B0F18" stroke-width="1"/>
  <rect x="256" y="178" width="6" height="6" fill="rgba(255,255,255,0.25)"/>
  <rect x="286" y="176" width="30" height="30" rx="2" ry="2" fill="#FFD166" stroke="#0B0F18" stroke-width="1"/>
  <rect x="288" y="178" width="6" height="6" fill="rgba(255,255,255,0.25)"/>
  <rect x="318" y="176" width="30" height="30" rx="2" ry="2" fill="#AB63FA" stroke="#0B0F18" stroke-width="1"/>
  <rect x="320" y="178" width="6" height="6" fill="rgba(255,255,255,0.25)"/>
  <rect x="30" y="208" width="30" height="30" rx="2" ry="2" fill="#7CFC00" stroke="#0B0F18" stroke-width="1"/>
  <rect x="32" y="210" width="6" height="6" fill="rgba(255,255,255,0.25)"/>
  <rect x="62" y="208" width="30" height="30" rx="2" ry="2" fill="#7CFC00" stroke="#0B0F18" stroke-width="1"/>
  <rect x="64" y="210" width="6" height="6" fill="rgba(255,255,255,0.25)"/>
  <rect x="94" y="208" width="30" height="30" rx="2" ry="2" fill="#7CFC00" stroke="#0B0F18" stroke-width="1"/>
  <rect x="96" y="210" width="6" height="6" fill="rgba(255,255,255,0.25)"/>
  <rect x="126" y="208" width="30" height="30" rx="2" ry="2" fill="#FFD166" stroke="#0B0F18" stroke-width="1"/>
  <rect x="128" y="210" width="6" height="6" fill="rgba(255,255,255,0.25)"/>
  <rect x="158" y="208" width="30" height="30" rx="2" ry="2" fill="#FF6F61" stroke="#0B0F18" stroke-width="1"/>
  <rect x="160" y="210" width="6" height="6" fill="rgba(255,255,255,0.25)"/>
  <rect x="190" y="208" width="30" height="30" rx="2" ry="2" fill="#58D3F7" stroke="#0B0F18" stroke-width="1"/>
  <rect x="192" y="210" width="6" height="6" fill="rgba(255,255,255,0.25)"/>
  <rect x="222" y="208" width="30" height="30" rx="2" ry="2" fill="#AB63FA" stroke="#0B0F18" stroke-width="1"/>
  <rect x="224" y="210" width="6" height="6" fill="rgba(255,255,255,0.25)"/>
  <rect x="254" y="208" width="30" height="30" rx="2" ry="2" fill="#FF6F61" stroke="#0B0F18" stroke-width="1"/>
  <rect x="256" y="210" width="6" height="6" fill="rgba(255,255,255,0.25)"/>
  <rect x="286" y="208" width="30" height="30" rx="2" ry="2" fill="#58D3F7" stroke="#0B0F18" stroke-width="1"/>
  <rect x="288" y="210" width="6" height="6" fill="rgba(255,255,255,0.25)"/>
  <rect x="318" y="208" width="30" height="30" rx="2" ry="2" fill="#FF6F61" stroke="#0B0F18" stroke-width="1"/>
  <rect x="320" y="210" width="6" height="6" fill="rgba(255,255,255,0.25)"/>
  <rect x="30" y="240" width="30" height="30" rx="2" ry="2" fill="#AB63FA" stroke="#0B0F18" stroke-width="1"/>
  <rect x="32" y="242" width="6" height="6" fill="rgba(255,255,255,0.25)"/>
  <rect x="62" y="240" width="30" height="30" rx="2" ry="2" fill="#4D908E" stroke="#0B0F18" stroke-width="1"/>
  <rect x="64" y="242" width="6" height="6" fill="rgba(255,255,255,0.25)"/>
  <rect x="94" y="240" width="30" height="30" rx="2" ry="2" fill="#FF6F61" stroke="#0B0F18" stroke-width="1"/>
  <rect x="96" y="242" width="6" height="6" fill="rgba(255,255,255,0.25)"/>
  <rect x="126" y="240" width="30" height="30" rx="2" ry="2" fill="#AB63FA" stroke="#0B0F18" stroke-width="1"/>
  <rect x="128" y="242" width="6" height="6" fill="rgba(255,255,255,0.25)"/>
  <rect x="158" y="240" width="30" height="30" rx="2" ry="2" fill="#7CFC00" stroke="#0B0F18" stroke-width="1"/>
  <rect x="160" y="242" width="6" height="6" fill="rgba(255,255,255,0.25)"/>
  <rect x="190" y="240" width="30" height="30" rx="2" ry="2" fill="#FFD166" stroke="#0B0F18" stroke-width="1"/>
  <rect x="192" y="242" width="6" height="6" fill="rgba(255,255,255,0.25)"/>
  <rect x="222" y="240" width="30" height="30" rx="2" ry="2" fill="#FFD166" stroke="#0B0F18" stroke-width="1"/>
  <rect x="224" y="242" width="6" height="6" fill="rgba(255,255,255,0.25)"/>
  <rect x="254" y="240" width="30" height="30" rx="2" ry="2" fill="#AB63FA" stroke="#0B0F18" stroke-width="1"/>
  <rect x="256" y="242" width="6" height="6" fill="rgba(255,255,255,0.25)"/>
  <rect x="286" y="240" width="30" height="30" rx="2" ry="2" fill="#FF6F61" stroke="#0B0F18" stroke-width="1"/>
  <rect x="288" y="242" width="6" height="6" fill="rgba(255,255,255,0.25)"/>
  <rect x="318" y="240" width="30" height="30" rx="2" ry="2" fill="#FFD166" stroke="#0B0F18" stroke-width="1"/>
  <rect x="320" y="242" width="6" height="6" fill="rgba(255,255,255,0.25)"/>
  <rect x="30" y="272" width="30" height="30" rx="2" ry="2" fill="#FFD166" stroke="#0B0F18" stroke-width="1"/>
  <rect x="32" y="274" width="6" height="6" fill="rgba(255,255,255,0.25)"/>
  <rect x="62" y="272" width="30" height="30" rx="2" ry="2" fill="#7CFC00" stroke="#0B0F18" stroke-width="1"/>
  <rect x="64" y="274" width="6" height="6" fill="rgba(255,255,255,0.25)"/>
  <rect x="94" y="272" width="30" height="30" rx="2" ry="2" fill="#7CFC00" stroke="#0B0F18" stroke-width="1"/>
  <rect x="96" y="274" width="6" height="6" fill="rgba(255,255,255,0.25)"/>
  <rect x="126" y="272" width="30" height="30" rx="2" ry="2" fill="#FF6F61" stroke="#0B0F18" stroke-width="1"/>
  <rect x="128" y="274" width="6" height="6" fill="rgba(255,255,255,0.25)"/>
  <rect x="158" y="272" width="30" height="30" rx="2" ry="2" fill="#FF6F61" stroke="#0B0F18" stroke-width="1"/>
  <rect x="160" y="274" width="6" height="6" fill="rgba(255,255,255,0.25)"/>
  <rect x="190" y="272" width="30" height="30" rx="2" ry="2" fill="#58D3F7" stroke="#0B0F18" stroke-width="1"/>
  <rect x="192" y="274" width="6" height="6" fill="rgba(255,255,255,0.25)"/>
  <rect x="222" y="272" width="30" height="30" rx="2" ry="2" fill="#58D3F7" stroke="#0B0F18" stroke-width="1"/>
  <rect x="224" y="274" width="6" height="6" fill="rgba(255,255,255,0.25)"/>
  <rect x="254" y="272" width="30" height="30" rx="2" ry="2" fill="#58D3F7" stroke="#0B0F18" stroke-width="1"/>
  <rect x="256" y="274" width="6" height="6" fill="rgba(255,255,255,0.25)"/>
  <rect x="286" y="272" width="30" height="30" rx="2" ry="2" fill="#FFD166" stroke="#0B0F18" stroke-width="1"/>
  <rect x="288" y="274" width="6" height="6" fill="rgba(255,255,255,0.25)"/>
  <rect x="318" y="272" width="30" height="30" rx="2" ry="2" fill="#4D908E" stroke="#0B0F18" stroke-width="1"/>
  <rect x="320" y="274" width="6" height="6" fill="rgba(255,255,255,0.25)"/>
  <rect x="30" y="304" width="30" height="30" rx="2" ry="2" fill="#FF6F61" stroke="#0B0F18" stroke-width="1"/>
  <rect x="32" y="306" width="6" height="6" fill="rgba(255,255,255,0.25)"/>
  <rect x="62" y="304" width="30" height="30" rx="2" ry="2" fill="#AB63FA" stroke="#0B0F18" stroke-width="1"/>
  <rect x="64" y="306" width="6" height="6" fill="rgba(255,255,255,0.25)"/>
  <rect x="94" y="304" width="30" height="30" rx="2" ry="2" fill="#AB63FA" stroke="#0B0F18" stroke-width="1"/>
  <rect x="96" y="306" width="6" height="6" fill="rgba(255,255,255,0.25)"/>
  <rect x="126" y="304" width="30" height="30" rx="2" ry="2" fill="#4D908E" stroke="#0B0F18" stroke-width="1"/>
  <rect x="128" y="306" width="6" height="6" fill="rgba(255,255,255,0.25)"/>
  <rect x="158" y="304" width="30" height="30" rx="2" ry="2" fill="#FFD166" stroke="#0B0F18" stroke-width="1"/>
  <rect x="160" y="306" width="6" height="6" fill="rgba(255,255,255,0.25)"/>
  <rect x="190" y="304" width="30" height="30" rx="2" ry="2" fill="#4D908E" stroke="#0B0F18" stroke-width="1"/>
  <rect x="192" y="306" width="6" height="6" fill="rgba(255,255,255,0.25)"/>
  <rect x="222" y="304" width="30" height="30" rx="2" ry="2" fill="#FF6F61" stroke="#0B0F18" stroke-width="1"/>
  <rect x="224" y="306" width="6" height="6" fill="rgba(255,255,255,0.25)"/>
  <rect x="254" y="304" width="30" height="30" rx="2" ry="2" fill="#7CFC00" stroke="#0B0F18" stroke-width="1"/>
  <rect x="256" y="306" width="6" height="6" fill="rgba(255,255,255,0.25)"/>
  <rect x="286" y="304" width="30" height="30" rx="2" ry="2" fill="#4D908E" stroke="#0B0F18" stroke-width="1"/>
  <rect x="288" y="306" width="6" height="6" fill="rgba(255,255,255,0.25)"/>
  <rect x="318" y="304" width="30" height="30" rx="2" ry="2" fill="#7CFC00" stroke="#0B0F18" stroke-width="1"/>
  <rect x="320" y="306" width="6" height="6" fill="rgba(255,255,255,0.25)"/>
  <rect x="30" y="336" width="30" height="30" rx="2" ry="2" fill="#58D3F7" stroke="#0B0F18" stroke-width="1"/>
  <rect x="32" y="338" width="6" height="6" fill="rgba(255,255,255,0.25)"/>
  <rect x="62" y="336" width="30" height="30" rx="2" ry="2" fill="#FFD166" stroke="#0B0F18" stroke-width="1"/>
  <rect x="64" y="338" width="6" height="6" fill="rgba(255,255,255,0.25)"/>
  <rect x="94" y="336" width="30" height="30" rx="2" ry="2" fill="#7CFC00" stroke="#0B0F18" stroke-width="1"/>
  <rect x="96" y="338" width="6" height="6" fill="rgba(255,255,255,0.25)"/>
  <rect x="126" y="336" width="30" height="30" rx="2" ry="2" fill="#4D908E" stroke="#0B0F18" stroke-width="1"/>
  <rect x="128" y="338" width="6" height="6" fill="rgba(255,255,255,0.25)"/>
  <rect x="158" y="336" width="30" height="30" rx="2" ry="2" fill="#4D908E" stroke="#0B0F18" stroke-width="1"/>
  <rect x="160" y="338" width="6" height="6" fill="rgba(255,255,255,0.25)"/>
  <rect x="190" y="336" width="30" height="30" rx="2" ry="2" fill="#FFD166" stroke="#0B0F18" stroke-width="1"/>
  <rect x="192" y="338" width="6" height="6" fill="rgba(255,255,255,0.25)"/>
  <rect x="222" y="336" width="30" height="30" rx="2" ry="2" fill="#FF6F61" stroke="#0B0F18" stroke-width="1"/>
  <rect x="224" y="338" width="6" height="6" fill="rgba(255,255,255,0.25)"/>
  <rect x="254" y="336" width="30" height="30" rx="2" ry="2" fill="#7CFC00" stroke="#0B0F18" stroke-width="1"/>
  <rect x="256" y="338" width="6" height="6" fill="rgba(255,255,255,0.25)"/>
  <rect x="286" y="336" width="30" height="30" rx="2" ry="2" fill="#FF6F61" stroke="#0B0F18" stroke-width="1"/>
  <rect x="288" y="338" width="6" height="6" fill="rgba(255,255,255,0.25)"/>
  <rect x="318" y="336" width="30" height="30" rx="2" ry="2" fill="#FFD166" stroke="#0B0F18" stroke-width="1"/>
  <rect x="320" y="338" width="6" height="6" fill="rgba(255,255,255,0.25)"/>
  <rect x="30" y="368" width="30" height="30" rx="2" ry="2" fill="#4D908E" stroke="#0B0F18" stroke-width="1"/>
  <rect x="32" y="370" width="6" height="6" fill="rgba(255,255,255,0.25)"/>
  <rect x="62" y="368" width="30" height="30" rx="2" ry="2" fill="#AB63FA" stroke="#0B0F18" stroke-width="1"/>
  <rect x="64" y="370" width="6" height="6" fill="rgba(255,255,255,0.25)"/>
  <rect x="94" y="368" width="30" height="30" rx="2" ry="2" fill="#FF6F61" stroke="#0B0F18" stroke-width="1"/>
  <rect x="96" y="370" width="6" height="6" fill="rgba(255,255,255,0.25)"/>
  <rect x="126" y="368" width="30" height="30" rx="2" ry="2" fill="#4D908E" stroke="#0B0F18" stroke-width="1"/>
  <rect x="128" y="370" width="6" height="6" fill="rgba(255,255,255,0.25)"/>
  <rect x="158" y="368" width="30" height="30" rx="2" ry="2" fill="#AB63FA" stroke="#0B0F18" stroke-width="1"/>
  <rect x="160" y="370" width="6" height="6" fill="rgba(255,255,255,0.25)"/>
  <rect x="190" y="368" width="30" height="30" rx="2" ry="2" fill="#7CFC00" stroke="#0B0F18" stroke-width="1"/>
  <rect x="192" y="370" width="6" height="6" fill="rgba(255,255,255,0.25)"/>
  <rect x="222" y="368" width="30" height="30" rx="2" ry="2" fill="#FF6F61" stroke="#0B0F18" stroke-width="1"/>
  <rect x="224" y="370" width="6" height="6" fill="rgba(255,255,255,0.25)"/>
  <rect x="254" y="368" width="30" height="30" rx="2" ry="2" fill="#58D3F7" stroke="#0B0F18" stroke-width="1"/>
  <rect x="256" y="370" width="6" height="6" fill="rgba(255,255,255,0.25)"/>
  <rect x="286" y="368" width="30" height="30" rx="2" ry="2" fill="#58D3F7" stroke="#0B0F18" stroke-width="1"/>
  <rect x="288" y="370" width="6" height="6" fill="rgba(255,255,255,0.25)"/>
  <rect x="318" y="368" width="30" height="30" rx="2" ry="2" fill="#4D908E" stroke="#0B0F18" stroke-width="1"/>
  <rect x="320" y="370" width="6" height="6" fill="rgba(255,255,255,0.25)"/>
  <rect x="30" y="440" width="100" height="100" rx="12" fill="#1C2230" stroke="#2A344A" stroke-width="2"/>
  <rect x="48" y="458" width="30" height="30" rx="2" ry="2" fill="#4D908E" stroke="#0B0F18" stroke-width="1"/>
  <rect x="80" y="458" width="30" height="30" rx="2" ry="2" fill="#4D908E" stroke="#0B0F18" stroke-width="1"/>
  <rect x="48" y="490" width="30" height="30" rx="2" ry="2" fill="#4D908E" stroke="#0B0F18" stroke-width="1"/>
  <rect x="150" y="440" width="100" height="100" rx="12" fill="#1C2230" stroke="#2A344A" stroke-width="2"/>
  <rect x="168" y="458" width="30" height="30" rx="2" ry="2" fill="#FFD166" stroke="#0B0F18" stroke-width="1"/>
  <rect x="200" y="458" width="30" height="30" rx="2" ry="2" fill="#FFD166" stroke="#0B0F18" stroke-width="1"/>
  <rect x="232" y="458" width="30" height="30" rx="2" ry="2" fill="#FFD166" stroke="#0B0F18" stroke-width="1"/>
  <rect x="200" y="490" width="30" height="30" rx="2" ry="2" fill="#FFD166" stroke="#0B0F18" stroke-width="1"/>
  <rect x="270" y="440" width="100" height="100" rx="12" fill="#1C2230" stroke="#2A344A" stroke-width="2"/>
  <rect x="288" y="458" width="30" height="30" rx="2" ry="2" fill="#4D908E" stroke="#0B0F18" stroke-width="1"/>
  <rect x="320" y="458" width="30" height="30" rx="2" ry="2" fill="#4D908E" stroke="#0B0F18" stroke-width="1"/>
  <rect x="352" y="458" width="30" height="30" rx="2" ry="2" fill="#4D908E" stroke="#0B0F18" stroke-width="1"/>
</svg>
