<svg xmlns="http://www.w3.org/2000/svg" width="420" height="760" viewBox="0 0 420 760">
  <defs>
    <filter id="shadow" x="-50%" y="-50%" width="200%" height="200%">
      <feDropShadow dx="0" dy="2" stdDeviation="2" flood-color="#000000" flood-opacity="0.45"/>
    </filter>
  </defs>
  <rect width="100%" height="100%" fill="#05070F"/>

  <rect x="22" y="72" width="334" height="334" rx="12" fill="#0E1322" stroke="#1B2845" stroke-width="2"/>
  <rect x="30" y="80" width="30" height="30" rx="4" ry="4" fill="#00F5D4" stroke="#5CFFE8" stroke-width="1" filter="url(#shadow)"/>
  <rect x="33" y="83" width="24" height="24" rx="4" ry="4" fill="none" stroke="rgba(255,255,255,0.25)" stroke-width="1"/>
  <rect x="62" y="80" width="30" height="30" rx="4" ry="4" fill="#00F5D4" stroke="#5CFFE8" stroke-width="1" filter="url(#shadow)"/>
  <rect x="65" y="83" width="24" height="24" rx="4" ry="4" fill="none" stroke="rgba(255,255,255,0.25)" stroke-width="1"/>
  <rect x="94" y="80" width="30" height="30" rx="4" ry="4" fill="#00F5D4" stroke="#5CFFE8" stroke-width="1" filter="url(#shadow)"/>
  <rect x="97" y="83" width="24" height="24" rx="4" ry="4" fill="none" stroke="rgba(255,255,255,0.25)" stroke-width="1"/>
  <rect x="126" y="80" width="30" height="30" rx="4" ry="4" fill="#F15BB5" stroke="#5CFFE8" stroke-width="1" filter="url(#shadow)"/>
  <rect x="129" y="83" width="24" height="24" rx="4" ry="4" fill="none" stroke="rgba(255,255,255,0.25)" stroke-width="1"/>
  <rect x="158" y="80" width="30" height="30" rx="4" ry="4" fill="#00BBF9" stroke="#5CFFE8" stroke-width="1" filter="url(#shadow)"/>
  <rect x="161" y="83" width="24" height="24" rx="4" ry="4" fill="none" stroke="rgba(255,255,255,0.25)" stroke-width="1"/>
  <rect x="190" y="80" width="30" height="30" rx="4" ry="4" fill="#00F5A0" stroke="#5CFFE8" stroke-width="1" filter="url(#shadow)"/>
  <rect x="193" y="83" width="24" height="24" rx="4" ry="4" fill="none" stroke="rgba(255,255,255,0.25)" stroke-width="1"/>
  <rect x="222" y="80" width="30" height="30" rx="4" ry="4" fill="#00F5A0" stroke="#5CFFE8" stroke-width="1" filter="url(#shadow)"/>
  <rect x="225" y="83" width="24" height="24" rx="4" ry="4" fill="none" stroke="rgba(255,255,255,0.25)" stroke-width="1"/>
  <rect x="254" y="80" width="30" height="30" rx="4" ry="4" fill="#F15BB5" stroke="#5CFFE8" stroke-width="1" filter="url(#shadow)"/>
  <rect x="257" y="83" width="24" height="24" rx="4" ry="4" fill="none" stroke="rgba(255,255,255,0.25)" stroke-width="1"/>
  <rect x="286" y="80" width="30" height="30" rx="4" ry="4" fill="#F15BB5" stroke="#5CFFE8" stroke-width="1" filter="url(#shadow)"/>
  <rect x="289" y="83" width="24" height="24" rx="4" ry="4" fill="none" stroke="rgba(255,255,255,0.25)" stroke-width="1"/>
  <rect x="318" y="80" width="30" height="30" rx="4" ry="4" fill="#9B5DE5" stroke="#5CFFE8" stroke-width="1" filter="url(#shadow)"/>
  <rect x="321" y="83" width="24" height="24" rx="4" ry="4" fill="none" stroke="rgba(255,255,255,0.25)" stroke-width="1"/>
  <rect x="30" y="112" width="30" height="30" rx="4" ry="4" fill="#00BBF9" stroke="#5CFFE8" stroke-width="1" filter="url(#shadow)"/>
  <rect x="33" y="115" width="24" height="24" rx="4" ry="4" fill="none" stroke="rgba(255,255,255,0.25)" stroke-width="1"/>
  <rect x="62" y="112" width="30" height="30" rx="4" ry="4" fill="#9B5DE5" stroke="#5CFFE8" stroke-width="1" filter="url(#shadow)"/>
  <rect x="65" y="115" width="24" height="24" rx="4" ry="4" fill="none" stroke="rgba(255,255,255,0.25)" stroke-width="1"/>
  <rect x="94" y="112" width="30" height="30" rx="4" ry="4" fill="#00F5D4" stroke="#5CFFE8" stroke-width="1" filter="url(#shadow)"/>
  <rect x="97" y="115" width="24" height="24" rx="4" ry="4" fill="none" stroke="rgba(255,255,255,0.25)" stroke-width="1"/>
  <rect x="126" y="112" width="30" height="30" rx="4" ry="4" fill="#9B5DE5" stroke="#5CFFE8" stroke-width="1" filter="url(#shadow)"/>
  <rect x="129" y="115" width="24" height="24" rx="4" ry="4" fill="none" stroke="rgba(255,255,255,0.25)" stroke-width="1"/>
  <rect x="158" y="112" width="30" height="30" rx="4" ry="4" fill="#00F5A0" stroke="#5CFFE8" stroke-width="1" filter="url(#shadow)"/>
  <rect x="161" y="115" width="24" height="24" rx="4" ry="4" fill="none" stroke="rgba(255,255,255,0.25)" stroke-width="1"/>
  <rect x="190" y="112" width="30" height="30" rx="4" ry="4" fill="#00BBF9" stroke="#5CFFE8" stroke-width="1" filter="url(#shadow)"/>
  <rect x="193" y="115" width="24" height="24" rx="4" ry="4" fill="none" stroke="rgba(255,255,255,0.25)" stroke-width="1"/>
  <rect x="222" y="112" width="30" height="30" rx="4" ry="4" fill="#FEE440" stroke="#5CFFE8" stroke-width="1" filter="url(#shadow)"/>
  <rect x="225" y="115" width="24" height="24" rx="4" ry="4" fill="none" stroke="rgba(255,255,255,0.25)" stroke-width="1"/>
  <rect x="254" y="112" width="30" height="30" rx="4" ry="4" fill="#00F5A0" stroke="#5CFFE8" stroke-width="1" filter="url(#shadow)"/>
  <rect x="257" y="115" width="24" height="24" rx="4" ry="4" fill="none" stroke="rgba(255,255,255,0.25)" stroke-width="1"/>
  <rect x="286" y="112" width="30" height="30" rx="4" ry="4" fill="#FEE440" stroke="#5CFFE8" stroke-width="1" filter="url(#shadow)"/>
  <rect x="289" y="115" width="24" height="24" rx="4" ry="4" fill="none" stroke="rgba(255,255,255,0.25)" stroke-width="1"/>
  <rect x="318" y="112" width="30" height="30" rx="4" ry="4" fill="#00F5A0" stroke="#5CFFE8" stroke-width="1" filter="url(#shadow)"/>
  <rect x="321" y="115" width="24" height="24" rx="4" ry="4" fill="none" stroke="rgba(255,255,255,0.25)" stroke-width="1"/>
  <rect x="30" y="144" width="30" height="30" rx="4" ry="4" fill="#9B5DE5" stroke="#5CFFE8" stroke-width="1" filter="url(#shadow)"/>
  <rect x="33" y="147" width="24" height="24" rx="4" ry="4" fill="none" stroke="rgba(255,255,255,0.25)" stroke-width="1"/>
  <rect x="62" y="144" width="30" height="30" rx="4" ry="4" fill="#F15BB5" stroke="#5CFFE8" stroke-width="1" filter="url(#shadow)"/>
  <rect x="65" y="147" width="24" height="24" rx="4" ry="4" fill="none" stroke="rgba(255,255,255,0.25)" stroke-width="1"/>
  <rect x="94" y="144" width="30" height="30" rx="4" ry="4" fill="#9B5DE5" stroke="#5CFFE8" stroke-width="1" filter="url(#shadow)"/>
  <rect x="97" y="147" width="24" height="24" rx="4" ry="4" fill="none" stroke="rgba(255,255,255,0.25)" stroke-width="1"/>
  <rect x="126" y="144" width="30" height="30" rx="4" ry="4" fill="#FEE440" stroke="#5CFFE8" stroke-width="1" filter="url(#shadow)"/>
  <rect x="129" y="147" width="24" height="24" rx="4" ry="4" fill="none" stroke="rgba(255,255,255,0.25)" stroke-width="1"/>
  <rect x="158" y="144" width="30" height="30" rx="4" ry="4" fill="#9B5DE5" stroke="#5CFFE8" stroke-width="1" filter="url(#shadow)"/>
  <rect x="161" y="147" width="24" height="24" rx="4" ry="4" fill="none" stroke="rgba(255,255,255,0.25)" stroke-width="1"/>
  <rect x="190" y="144" width="30" height="30" rx="4" ry="4" fill="#F15BB5" stroke="#5CFFE8" stroke-width="1" filter="url(#shadow)"/>
  <rect x="193" y="147" width="24" height="24" rx="4" ry="4" fill="none" stroke="rgba(255,255,255,0.25)" stroke-width="1"/>
  <rect x="222" y="144" width="30" height="30" rx="4" ry="4" fill="#00F5D4" stroke="#5CFFE8" stroke-width="1" filter="url(#shadow)"/>
  <rect x="225" y="147" width="24" height="24" rx="4" ry="4" fill="none" stroke="rgba(255,255,255,0.25)" stroke-width="1"/>
  <rect x="254" y="144" width="30" height="30" rx="4" ry="4" fill="#00F5D4" stroke="#5CFFE8" stroke-width="1" filter="url(#shadow)"/>
  <rect x="257" y="147" width="24" height="24" rx="4" ry="4" fill="none" stroke="rgba(255,255,255,0.25)" stroke-width="1"/>
  <rect x="286" y="144" width="30" height="30" rx="4" ry="4" fill="#F15BB5" stroke="#5CFFE8" stroke-width="1" filter="url(#shadow)"/>
  <rect x="289" y="147" width="24" height="24" rx="4" ry="4" fill="none" stroke="rgba(255,255,255,0.25)" stroke-width="1"/>
  <rect x="318" y="144" width="30" height="30" rx="4" ry="4" fill="#FEE440" stroke="#5CFFE8" stroke-width="1" filter="url(#shadow)"/>
  <rect x="321" y="147" width="24" height="24" rx="4" ry="4" fill="none" stroke="rgba(255,255,255,0.25)" stroke-width="1"/>
  <rect x="30" y="176" width="30" height="30" rx="4" ry="4" fill="#F15BB5" stroke="#5CFFE8" stroke-width="1" filter="url(#shadow)"/>
  <rect x="33" y="179" width="24" height="24" rx="4" ry="4" fill="none" stroke="rgba(255,255,255,0.25)" stroke-width="1"/>
  <rect x="62" y="176" width="30" height="30" rx="4" ry="4" fill="#FEE440" stroke="#5CFFE8" stroke-width="1" filter="url(#shadow)"/>
  <rect x="65" y="179" width="24" height="24" rx="4" ry="4" fill="none" stroke="rgba(255,255,255,0.25)" stroke-width="1"/>
  <rect x="94" y="176" width="30" height="30" rx="4" ry="4" fill="#FEE440" stroke="#5CFFE8" stroke-width="1" filter="url(#shadow)"/>
  <rect x="97" y="179" width="24" height="24" rx="4" ry="4" fill="none" stroke="rgba(255,255,255,0.25)" stroke-width="1"/>
  <rect x="126" y="176" width="30" height="30" rx="4" ry="4" fill="#9B5DE5" stroke="#5CFFE8" stroke-width="1" filter="url(#shadow)"/>
  <rect x="129" y="179" width="24" height="24" rx="4" ry="4" fill="none" stroke="rgba(255,255,255,0.25)" stroke-width="1"/>
  <rect x="158" y="176" width="30" height="30" rx="4" ry="4" fill="#00BBF9" stroke="#5CFFE8" stroke-width="1" filter="url(#shadow)"/>
  <rect x="161" y="179" width="24" height="24" rx="4" ry="4" fill="none" stroke="rgba(255,255,255,0.25)" stroke-width="1"/>
  <rect x="190" y="176" width="30" height="30" rx="4" ry="4" fill="#9B5DE5" stroke="#5CFFE8" stroke-width="1" filter="url(#shadow)"/>
  <rect x="193" y="179" width="24" height="24" rx="4" ry="4" fill="none" stroke="rgba(255,255,255,0.25)" stroke-width="1"/>
  <rect x="222" y="176" width="30" height="30" rx="4" ry="4" fill="#00BBF9" stroke="#5CFFE8" stroke-width="1" filter="url(#shadow)"/>
  <rect x="225" y="179" width="24" height="24" rx="4" ry="4" fill="none" stroke="rgba(255,255,255,0.25)" stroke-width="1"/>
  <rect x="254" y="176" width="30" height="30" rx="4" ry="4" fill="#00BBF9" stroke="#5CFFE8" stroke-width="1" filter="url(#shadow)"/>
  <rect x="257" y="179" width="24" height="24" rx="4" ry="4" fill="none" stroke="rgba(255,255,255,0.25)" stroke-width="1"/>
  <rect x="286" y="176" width="30" height="30" rx="4" ry="4" fill="#00BBF9" stroke="#5CFFE8" stroke-width="1" filter="url(#shadow)"/>
  <rect x="289" y="179" width="24" height="24" rx="4" ry="4" fill="none" stroke="rgba(255,255,255,0.25)" stroke-width="1"/>
  <rect x="318" y="176" width="30" height="30" rx="4" ry="4" fill="#00F5D4" stroke="#5CFFE8" stroke-width="1" filter="url(#shadow)"/>
  <rect x="321" y="179" width="24" height="24" rx="4" ry="4" fill="none" stroke="rgba(255,255,255,0.25)" stroke-width="1"/>
  <rect x="30" y="208" width="30" height="30" rx="4" ry="4" fill="#00BBF9" stroke="#5CFFE8" stroke-width="1" filter="url(#shadow)"/>
  <rect x="33" y="211" width="24" height="24" rx="4" ry="4" fill="none" stroke="rgba(255,255,255,0.25)" stroke-width="1"/>
  <rect x="62" y="208" width="30" height="30" rx="4" ry="4" fill="#F15BB5" stroke="#5CFFE8" stroke-width="1" filter="url(#shadow)"/>
  <rect x="65" y="211" width="24" height="24" rx="4" ry="4" fill="none" stroke="rgba(255,255,255,0.25)" stroke-width="1"/>
  <rect x="94" y="208" width="30" height="30" rx="4" ry="4" fill="#00BBF9" stroke="#5CFFE8" stroke-width="1" filter="url(#shadow)"/>
  <rect x="97" y="211" width="24" height="24" rx="4" ry="4" fill="none" stroke="rgba(255,255,255,0.25)" stroke-width="1"/>
  <rect x="126" y="208" width="30" height="30" rx="4" ry="4" fill="#00BBF9" stroke="#5CFFE8" stroke-width="1" filter="url(#shadow)"/>
  <rect x="129" y="211" width="24" height="24" rx="4" ry="4" fill="none" stroke="rgba(255,255,255,0.25)" stroke-width="1"/>
  <rect x="158" y="208" width="30" height="30" rx="4" ry="4" fill="#9B5DE5" stroke="#5CFFE8" stroke-width="1" filter="url(#shadow)"/>
  <rect x="161" y="211" width="24" height="24" rx="4" ry="4" fill="none" stroke="rgba(255,255,255,0.25)" stroke-width="1"/>
  <rect x="190" y="208" width="30" height="30" rx="4" ry="4" fill="#9B5DE5" stroke="#5CFFE8" stroke-width="1" filter="url(#shadow)"/>
  <rect x="193" y="211" width="24" height="24" rx="4" ry="4" fill="none" stroke="rgba(255,255,255,0.25)" stroke-width="1"/>
  <rect x="222" y="208" width="30" height="30" rx="4" ry="4" fill="#F15BB5" stroke="#5CFFE8" stroke-width="1" filter="url(#shadow)"/>
  <rect x="225" y="211" width="24" height="24" rx="4" ry="4" fill="none" stroke="rgba(255,255,255,0.25)" stroke-width="1"/>
  <rect x="254" y="208" width="30" height="30" rx="4" ry="4" fill="#9B5DE5" stroke="#5CFFE8" stroke-width="1" filter="url(#shadow)"/>
  <rect x="257" y="211" width="24" height="24" rx="4" ry="4" fill="none" stroke="rgba(255,255,255,0.25)" stroke-width="1"/>
  <rect x="286" y="208" width="30" height="30" rx="4" ry="4" fill="#00F5A0" stroke="#5CFFE8" stroke-width="1" filter="url(#shadow)"/>
  <rect x="289" y="211" width="24" height="24" rx="4" ry="4" fill="none" stroke="rgba(255,255,255,0.25)" stroke-width="1"/>
  <rect x="318" y="208" width="30" height="30" rx="4" ry="4" fill="#9B5DE5" stroke="#5CFFE8" stroke-width="1" filter="url(#shadow)"/>
  <rect x="321" y="211" width="24" height="24" rx="4" ry="4" fill="none" stroke="rgba(255,255,255,0.25)" stroke-width="1"/>
  <rect x="30" y="240" width="30" height="30" rx="4" ry="4" fill="#00BBF9" stroke="#5CFFE8" stroke-width="1" filter="url(#shadow)"/>
  <rect x="33" y="243" width="24" height="24" rx="4" ry="4" fill="none" stroke="rgba(255,255,255,0.25)" stroke-width="1"/>
  <rect x="62" y="240" width="30" height="30" rx="4" ry="4" fill="#FEE440" stroke="#5CFFE8" stroke-width="1" filter="url(#shadow)"/>
  <rect x="65" y="243" width="24" height="24" rx="4" ry="4" fill="none" stroke="rgba(255,255,255,0.25)" stroke-width="1"/>
  <rect x="94" y="240" width="30" height="30" rx="4" ry="4" fill="#FEE440" stroke="#5CFFE8" stroke-width="1" filter="url(#shadow)"/>
  <rect x="97" y="243" width="24" height="24" rx="4" ry="4" fill="none" stroke="rgba(255,255,255,0.25)" stroke-width="1"/>
  <rect x="126" y="240" width="30" height="30" rx="4" ry="4" fill="#00F5A0" stroke="#5CFFE8" stroke-width="1" filter="url(#shadow)"/>
  <rect x="129" y="243" width="24" height="24" rx="4" ry="4" fill="none" stroke="rgba(255,255,255,0.25)" stroke-width="1"/>
  <rect x="158" y="240" width="30" height="30" rx="4" ry="4" fill="#9B5DE5" stroke="#5CFFE8" stroke-width="1" filter="url(#shadow)"/>
  <rect x="161" y="243" width="24" height="24" rx="4" ry="4" fill="none" stroke="rgba(255,255,255,0.25)" stroke-width="1"/>
  <rect x="190" y="240" width="30" height="30" rx="4" ry="4" fill="#F15BB5" stroke="#5CFFE8" stroke-width="1" filter="url(#shadow)"/>
  <rect x="193" y="243" width="24" height="24" rx="4" ry="4" fill="none" stroke="rgba(255,255,255,0.25)" stroke-width="1"/>
  <rect x="222" y="240" width="30" height="30" rx="4" ry="4" fill="#9B5DE5" stroke="#5CFFE8" stroke-width="1" filter="url(#shadow)"/>
  <rect x="225" y="243" width="24" height="24" rx="4" ry="4" fill="none" stroke="rgba(255,255,255,0.25)" stroke-width="1"/>
  <rect x="254" y="240" width="30" height="30" rx="4" ry="4" fill="#F15BB5" stroke="#5CFFE8" stroke-width="1" filter="url(#shadow)"/>
  <rect x="257" y="243" width="24" height="24" rx="4" ry="4" fill="none" stroke="rgba(255,255,255,0.25)" stroke-width="1"/>
  <rect x="286" y="240" width="30" height="30" rx="4" ry="4" fill="#F15BB5" stroke="#5CFFE8" stroke-width="1" filter="url(#shadow)"/>
  <rect x="289" y="243" width="24" height="24" rx="4" ry="4" fill="none" stroke="rgba(255,255,255,0.25)" stroke-width="1"/>
  <rect x="318" y="240" width="30" height="30" rx="4" ry="4" fill="#FEE440" stroke="#5CFFE8" stroke-width="1" filter="url(#shadow)"/>
  <rect x="321" y="243" width="24" height="24" rx="4" ry="4" fill="none" stroke="rgba(255,255,255,0.25)" stroke-width="1"/>
  <rect x="30" y="272" width="30" height="30" rx="4" ry="4" fill="#00BBF9" stroke="#5CFFE8" stroke-width="1" filter="url(#shadow)"/>
  <rect x="33" y="275" width="24" height="24" rx="4" ry="4" fill="none" stroke="rgba(255,255,255,0.25)" stroke-width="1"/>
  <rect x="62" y="272" width="30" height="30" rx="4" ry="4" fill="#FEE440" stroke="#5CFFE8" stroke-width="1" filter="url(#shadow)"/>
  <rect x="65" y="275" width="24" height="24" rx="4" ry="4" fill="none" stroke="rgba(255,255,255,0.25)" stroke-width="1"/>
  <rect x="94" y="272" width="30" height="30" rx="4" ry="4" fill="#00F5A0" stroke="#5CFFE8" stroke-width="1" filter="url(#shadow)"/>
  <rect x="97" y="275" width="24" height="24" rx="4" ry="4" fill="none" stroke="rgba(255,255,255,0.25)" stroke-width="1"/>
  <rect x="126" y="272" width="30" height="30" rx="4" ry="4" fill="#00F5A0" stroke="#5CFFE8" stroke-width="1" filter="url(#shadow)"/>
  <rect x="129" y="275" width="24" height="24" rx="4" ry="4" fill="none" stroke="rgba(255,255,255,0.25)" stroke-width="1"/>
  <rect x="158" y="272" width="30" height="30" rx="4" ry="4" fill="#FEE440" stroke="#5CFFE8" stroke-width="1" filter="url(#shadow)"/>
  <rect x="161" y="275" width="24" height="24" rx="4" ry="4" fill="none" stroke="rgba(255,255,255,0.25)" stroke-width="1"/>
  <rect x="190" y="272" width="30" height="30" rx="4" ry="4" fill="#00F5A0" stroke="#5CFFE8" stroke-width="1" filter="url(#shadow)"/>
  <rect x="193" y="275" width="24" height="24" rx="4" ry="4" fill="none" stroke="rgba(255,255,255,0.25)" stroke-width="1"/>
  <rect x="222" y="272" width="30" height="30" rx="4" ry="4" fill="#9B5DE5" stroke="#5CFFE8" stroke-width="1" filter="url(#shadow)"/>
  <rect x="225" y="275" width="24" height="24" rx="4" ry="4" fill="none" stroke="rgba(255,255,255,0.25)" stroke-width="1"/>
  <rect x="254" y="272" width="30" height="30" rx="4" ry="4" fill="#00BBF9" stroke="#5CFFE8" stroke-width="1" filter="url(#shadow)"/>
  <rect x="257" y="275" width="24" height="24" rx="4" ry="4" fill="none" stroke="rgba(255,255,255,0.25)" stroke-width="1"/>
  <rect x="286" y="272" width="30" height="30" rx="4" ry="4" fill="#FEE440" stroke="#5CFFE8" stroke-width="1" filter="url(#shadow)"/>
  <rect x="289" y="275" width="24" height="24" rx="4" ry="4" fill="none" stroke="rgba(255,255,255,0.25)" stroke-width="1"/>
  <rect x="318" y="272" width="30" height="30" rx="4" ry="4" fill="#F15BB5" stroke="#5CFFE8" stroke-width="1" filter="url(#shadow)"/>
  <rect x="321" y="275" width="24" height="24" rx="4" ry="4" fill="none" stroke="rgba(255,255,255,0.25)" stroke-width="1"/>
  <rect x="30" y="304" width="30" height="30" rx="4" ry="4" fill="#FEE440" stroke="#5CFFE8" stroke-width="1" filter="url(#shadow)"/>
  <rect x="33" y="307" width="24" height="24" rx="4" ry="4" fill="none" stroke="rgba(255,255,255,0.25)" stroke-width="1"/>
  <rect x="62" y="304" width="30" height="30" rx="4" ry="4" fill="#9B5DE5" stroke="#5CFFE8" stroke-width="1" filter="url(#shadow)"/>
  <rect x="65" y="307" width="24" height="24" rx="4" ry="4" fill="none" stroke="rgba(255,255,255,0.25)" stroke-width="1"/>
  <rect x="94" y="304" width="30" height="30" rx="4" ry="4" fill="#9B5DE5" stroke="#5CFFE8" stroke-width="1" filter="url(#shadow)"/>
  <rect x="97" y="307" width="24" height="24" rx="4" ry="4" fill="none" stroke="rgba(255,255,255,0.25)" stroke-width="1"/>
  <rect x="126" y="304" width="30" height="30" rx="4" ry="4" fill="#F15BB5" stroke="#5CFFE8" stroke-width="1" filter="url(#shadow)"/>
  <rect x="129" y="307" width="24" height="24" rx="4" ry="4" fill="none" stroke="rgba(255,255,255,0.25)" stroke-width="1"/>
  <rect x="158" y="304" width="30" height="30" rx="4" ry="4" fill="#00F5A0" stroke="#5CFFE8" stroke-width="1" filter="url(#shadow)"/>
  <rect x="161" y="307" width="24" height="24" rx="4" ry="4" fill="none" stroke="rgba(255,255,255,0.25)" stroke-width="1"/>
  <rect x="190" y="304" width="30" height="30" rx="4" ry="4" fill="#FEE440" stroke="#5CFFE8" stroke-width="1" filter="url(#shadow)"/>
  <rect x="193" y="307" width="24" height="24" rx="4" ry="4" fill="none" stroke="rgba(255,255,255,0.25)" stroke-width="1"/>
  <rect x="222" y="304" width="30" height="30" rx="4" ry="4" fill="#FEE440" stroke="#5CFFE8" stroke-width="1" filter="url(#shadow)"/>
  <rect x="225" y="307" width="24" height="24" rx="4" ry="4" fill="none" stroke="rgba(255,255,255,0.25)" stroke-width="1"/>
  <rect x="254" y="304" width="30" height="30" rx="4" ry="4" fill="#F15BB5" stroke="#5CFFE8" stroke-width="1" filter="url(#shadow)"/>
  <rect x="257" y="307" width="24" height="24" rx="4" ry="4" fill="none" stroke="rgba(255,255,255,0.25)" stroke-width="1"/>
  <rect x="286" y="304" width="30" height="30" rx="4" ry="4" fill="#9B5DE5" stroke="#5CFFE8" stroke-width="1" filter="url(#shadow)"/>
  <rect x="289" y="307" width="24" height="24" rx="4" ry="4" fill="none" stroke="rgba(255,255,255,0.25)" stroke-width="1"/>
  <rect x="318" y="304" width="30" height="30" rx="4" ry="4" fill="#00F5A0" stroke="#5CFFE8" stroke-width="1" filter="url(#shadow)"/>
  <rect x="321" y="307" width="24" height="24" rx="4" ry="4" fill="none" stroke="rgba(255,255,255,0.25)" stroke-width="1"/>
  <rect x="30" y="336" width="30" height="30" rx="4" ry="4" fill="#9B5DE5" stroke="#5CFFE8" stroke-width="1" filter="url(#shadow)"/>
  <rect x="33" y="339" width="24" height="24" rx="4" ry="4" fill="none" stroke="rgba(255,255,255,0.25)" stroke-width="1"/>
  <rect x="62" y="336" width="30" height="30" rx="4" ry="4" fill="#00F5A0" stroke="#5CFFE8" stroke-width="1" filter="url(#shadow)"/>
  <rect x="65" y="339" width="24" height="24" rx="4" ry="4" fill="none" stroke="rgba(255,255,255,0.25)" stroke-width="1"/>
  <rect x="94" y="336" width="30" height="30" rx="4" ry="4" fill="#FEE440" stroke="#5CFFE8" stroke-width="1" filter="url(#shadow)"/>
  <rect x="97" y="339" width="24" height="24" rx="4" ry="4" fill="none" stroke="rgba(255,255,255,0.25)" stroke-width="1"/>
  <rect x="126" y="336" width="30" height="30" rx="4" ry="4" fill="#FEE440" stroke="#5CFFE8" stroke-width="1" filter="url(#shadow)"/>
  <rect x="129" y="339" width="24" height="24" rx="4" ry="4" fill="none" stroke="rgba(255,255,255,0.25)" stroke-width="1"/>
  <rect x="158" y="336" width="30" height="30" rx="4" ry="4" fill="#00F5A0" stroke="#5CFFE8" stroke-width="1" filter="url(#shadow)"/>
  <rect x="161" y="339" width="24" height="24" rx="4" ry="4" fill="none" stroke="rgba(255,255,255,0.25)" stroke-width="1"/>
  <rect x="190" y="336" width="30" height="30" rx="4" ry="4" fill="#00BBF9" stroke="#5CFFE8" stroke-width="1" filter="url(#shadow)"/>
  <rect x="193" y="339" width="24" height="24" rx="4" ry="4" fill="none" stroke="rgba(255,255,255,0.25)" stroke-width="1"/>
  <rect x="222" y="336" width="30" height="30" rx="4" ry="4" fill="#F15BB5" stroke="#5CFFE8" stroke-width="1" filter="url(#shadow)"/>
  <rect x="225" y="339" width="24" height="24" rx="4" ry="4" fill="none" stroke="rgba(255,255,255,0.25)" stroke-width="1"/>
  <rect x="254" y="336" width="30" height="30" rx="4" ry="4" fill="#00F5A0" stroke="#5CFFE8" stroke-width="1" filter="url(#shadow)"/>
  <rect x="257" y="339" width="24" height="24" rx="4" ry="4" fill="none" stroke="rgba(255,255,255,0.25)" stroke-width="1"/>
  <rect x="286" y="336" width="30" height="30" rx="4" ry="4" fill="#00BBF9" stroke="#5CFFE8" stroke-width="1" filter="url(#shadow)"/>
  <rect x="289" y="339" width="24" height="24" rx="4" ry="4" fill="none" stroke="rgba(255,255,255,0.25)" stroke-width="1"/>
  <rect x="318" y="336" width="30" height="30" rx="4" ry="4" fill="#9B5DE5" stroke="#5CFFE8" stroke-width="1" filter="url(#shadow)"/>
  <rect x="321" y="339" width="24" height="24" rx="4" ry="4" fill="none" stroke="rgba(255,255,255,0.25)" stroke-width="1"/>
  <rect x="30" y="368" width="30" height="30" rx="4" ry="4" fill="#F15BB5" stroke="#5CFFE8" stroke-width="1" filter="url(#shadow)"/>
  <rect x="33" y="371" width="24" height="24" rx="4" ry="4" fill="none" stroke="rgba(255,255,255,0.25)" stroke-width="1"/>
  <rect x="62" y="368" width="30" height="30" rx="4" ry="4" fill="#FEE440" stroke="#5CFFE8" stroke-width="1" filter="url(#shadow)"/>
  <rect x="65" y="371" width="24" height="24" rx="4" ry="4" fill="none" stroke="rgba(255,255,255,0.25)" stroke-width="1"/>
  <rect x="94" y="368" width="30" height="30" rx="4" ry="4" fill="#F15BB5" stroke="#5CFFE8" stroke-width="1" filter="url(#shadow)"/>
  <rect x="97" y="371" width="24" height="24" rx="4" ry="4" fill="none" stroke="rgba(255,255,255,0.25)" stroke-width="1"/>
  <rect x="126" y="368" width="30" height="30" rx="4" ry="4" fill="#F15BB5" stroke="#5CFFE8" stroke-width="1" filter="url(#shadow)"/>
  <rect x="129" y="371" width="24" height="24" rx="4" ry="4" fill="none" stroke="rgba(255,255,255,0.25)" stroke-width="1"/>
  <rect x="158" y="368" width="30" height="30" rx="4" ry="4" fill="#00F5A0" stroke="#5CFFE8" stroke-width="1" filter="url(#shadow)"/>
  <rect x="161" y="371" width="24" height="24" rx="4" ry="4" fill="none" stroke="rgba(255,255,255,0.25)" stroke-width="1"/>
  <rect x="190" y="368" width="30" height="30" rx="4" ry="4" fill="#9B5DE5" stroke="#5CFFE8" stroke-width="1" filter="url(#shadow)"/>
  <rect x="193" y="371" width="24" height="24" rx="4" ry="4" fill="none" stroke="rgba(255,255,255,0.25)" stroke-width="1"/>
  <rect x="222" y="368" width="30" height="30" rx="4" ry="4" fill="#9B5DE5" stroke="#5CFFE8" stroke-width="1" filter="url(#shadow)"/>
  <rect x="225" y="371" width="24" height="24" rx="4" ry="4" fill="none" stroke="rgba(255,255,255,0.25)" stroke-width="1"/>
  <rect x="254" y="368" width="30" height="30" rx="4" ry="4" fill="#9B5DE5" stroke="#5CFFE8" stroke-width="1" filter="url(#shadow)"/>
  <rect x="257" y="371" width="24" height="24" rx="4" ry="4" fill="none" stroke="rgba(255,255,255,0.25)" stroke-width="1"/>
  <rect x="286" y="368" width="30" height="30" rx="4" ry="4" fill="#9B5DE5" stroke="#5CFFE8" stroke-width="1" filter="url(#shadow)"/>
  <rect x="289" y="371" width="24" height="24" rx="4" ry="4" fill="none" stroke="rgba(255,255,255,0.25)" stroke-width="1"/>
  <rect x="318" y="368" width="30" height="30" rx="4" ry="4" fill="#00F5A0" stroke="#5CFFE8" stroke-width="1" filter="url(#shadow)"/>
  <rect x="321" y="371" width="24" height="24" rx="4" ry="4" fill="none" stroke="rgba(255,255,255,0.25)" stroke-width="1"/>
  <rect x="30" y="440" width="100" height="100" rx="12" fill="#0E1322" stroke="#1B2845" stroke-width="2"/>
  <rect x="48" y="458" width="30" height="30" rx="4" ry="4" fill="#9B5DE5" stroke="#5CFFE8" stroke-width="1" filter="url(#shadow)"/>
  <rect x="80" y="458" width="30" height="30" rx="4" ry="4" fill="#9B5DE5" stroke="#5CFFE8" stroke-width="1" filter="url(#shadow)"/>
  <rect x="48" y="490" width="30" height="30" rx="4" ry="4" fill="#9B5DE5" stroke="#5CFFE8" stroke-width="1" filter="url(#shadow)"/>
  <rect x="150" y="440" width="100" height="100" rx="12" fill="#0E1322" stroke="#1B2845" stroke-width="2"/>
  <rect x="168" y="458" width="30" height="30" rx="4" ry="4" fill="#00BBF9" stroke="#5CFFE8" stroke-width="1" filter="url(#shadow)"/>
  <rect x="200" y="458" width="30" height="30" rx="4" ry="4" fill="#00BBF9" stroke="#5CFFE8" stroke-width="1" filter="url(#shadow)"/>
  <rect x="232" y="458" width="30" height="30" rx="4" ry="4" fill="#00BBF9" stroke="#5CFFE8" stroke-width="1" filter="url(#shadow)"/>
  <rect x="200" y="490" width="30" height="30" rx="4" ry="4" fill="#00BBF9" stroke="#5CFFE8" stroke-width="1" filter="url(#shadow)"/>
  <rect x="270" y="440" width="100" height="100" rx="12" fill="#0E1322" stroke="#1B2845" stroke-width="2"/>
  <rect x="288" y="458" width="30" height="30" rx="4" ry="4" fill="#9B5DE5" stroke="#5CFFE8" stroke-width="1" filter="url(#shadow)"/>
  <rect x="320" y="458" width="30" height="30" rx="4" ry="4" fill="#9B5DE5" stroke="#5CFFE8" stroke-width="1" filter="url(#shadow)"/>
  <rect x="352" y="458" width="30" height="30" rx="4" ry="4" fill="#9B5DE5" stroke="#5CFFE8" stroke-width="1" filter="url(#shadow)"/>
</svg>
